<?xml version="1.0" encoding="UTF-8" standalone="no"?>
<svg
   viewBox="0 0 770 948"
   version="1.1"
   id="svg4"
   xmlns="http://www.w3.org/2000/svg"
   xmlns:svg="http://www.w3.org/2000/svg"
   xmlns:rdf="http://www.w3.org/1999/02/22-rdf-syntax-ns#"
   xmlns:cc="http://creativecommons.org/ns#"
   xmlns:dc="http://purl.org/dc/elements/1.1/">
  <title
     id="title116">Screen burn-in</title>
  <defs
     id="defs8" />
  <path
     d="M204 938a35 35 0 0 1 20-34l7-3h39l40-1a4479 4479 0 0 0 8-67v-2h68c65 0 67 0 67 2l6 59 1 9h39l43 1c13 5 23 17 24 31l1 11v4H204ZM29 810c-10-2-20-9-26-20-2-6-2-6-3-24v-18h770v16c0 21-2 28-12 37-5 5-11 7-19 9H29zm364-17c11-5 12-21 1-29-10-8-27 1-27 14 0 7 6 15 13 17 3 1 10 0 13-2zm122-2c9-4 10-18 1-23-12-7-25 7-18 18 3 3 8 7 12 7l5-2zm197-4 4-5v-7l-4-4-31-1c-29 0-30 0-31 2-3 4-3 7-1 10 0 2 2 4 3 5h60zm-139-3c3-4 2-9-1-12-3-2-4-2-14-2-11 0-12 0-14 2-4 3-4 9-1 12 2 3 3 3 15 3 13 0 13 0 15-3zm53 1 2-6c0-3 0-4-3-6l-3-3h-12c-11 0-12 0-14 3s-2 8 0 11 2 3 15 3c11 0 13 0 15-2zM25 726c-9-2-18-10-22-19l-2-5-1-215c0-238 0-220 7-231 3-5 9-10 16-13 4-2 8-2 85-2h80l2 8c4 20 10 36 22 57l10 19 5 20-22-6c-1-1-1 11 1 22 2 12 5 23 12 40l8 26 3 12-3 12c-7 21-10 38-9 56 3 50 34 93 86 120a833 833 0 0 0 57 26c1 2-44-3-63-7l-13-2-30 1-29 2a437 437 0 0 0 135 28 375 375 0 0 0 160-22l16-6-20-2-19-1-12 2c-18 4-30 6-47 6l-15 1 19-8c22-10 54-25 64-32 31-20 55-50 66-81a203 203 0 0 0-2-118c-8-36-8-35-8-50s2-24 8-37c8-18 29-44 51-62l6-5h-11a219 219 0 0 0-26 1l11-10 11-10h131l6 3c7 4 14 11 18 19l3 5v434l-3 5c-3 7-10 14-17 17l-6 2H25Zm154-287c8-3 12-13 10-24a329 329 0 0 0-15-53v7c-1 9-3 18-8 30l-6 15c-2 11 2 21 10 25 5 2 5 2 9 0zm436-2c6-5 8-17 4-32a450 450 0 0 1-9-36l-3-7-1 8c-1 11-2 15-8 29-5 10-5 12-6 19 0 7 0 9 2 13 3 6 7 9 14 8l7-2zM454 607l5-5c19-21 32-45 38-74 2-9 3-13 3-28 0-19-2-27-7-44-6-17-13-30-33-57-26-36-30-52-19-94l5-23c1-9 2-36 0-35l-2 7c-3 11-14 30-26 47-20 28-26 37-30 52-3 8-3 11-3 22 0 15 1 22 7 33 5 11 10 17 28 34 27 28 35 43 37 69 1 12-1 24-5 34-4 9-5 10-5 4 0-4-4-22-6-25h-1l-1 7-5 13c-6 11-16 22-28 28l-9 4 3-5c13-17 18-38 15-58-2-10-5-19-10-27-8-12-17-19-38-34-14-9-23-17-29-24s-13-18-16-25c-2-7-2-7-3-4-2 6-1 33 1 42 4 19 9 28 30 49 18 18 21 23 22 35 1 15-6 27-19 36-9 5-12 6-10 3 2-4 3-17 1-23-2-10-6-18-16-30-11-13-16-20-21-31l-4-8v6c1 7-1 24-4 41-6 30-3 50 11 71l9 11 5 5-7-4c-30-16-50-35-62-60-7-14-10-26-10-42 0-11 2-20 6-39l5-21c1-13-3-28-12-50l-5-12 6 1c8 2 25 3 32 2 9-2 17-7 23-13 14-13 19-30 19-54 1-25-4-40-22-71-20-34-25-48-25-74 0-12 3-27 6-36 2-5 3-5 4 2s7 23 11 30c9 15 19 25 38 38 21 14 34 25 42 38a152 152 0 0 1 15 28l-2-16c-3-21-4-74-2-99 3-50 13-84 31-111 7-10 7-10 7 1 2 22 8 35 34 67 33 41 55 83 63 119a163 163 0 0 1-3 83l4-2c9-7 39-19 44-19l-4 6c-8 8-14 17-18 26-6 12-7 19-8 35 0 19 1 27 9 58 7 30 9 42 10 58 1 24-3 40-13 60-11 24-34 46-59 60l-27 12ZM257 346c1-5-1-20-3-27-3-8-7-17-15-31-10-15-17-31-20-41-4-15-3-36 3-53 4-11 19-41 21-39l-1 10c-2 17 2 37 11 54l13 23c17 28 21 38 21 56 0 10-1 13-3 19-2 7-8 16-13 22l-13 10-1-3zm299-114c-8-4-15-15-17-26-4-14-1-36 5-52s13-28 24-40c10-10 28-22 23-15s-11 18-14 26c-3 9-3 11-3 21 0 11 0 12 4 22 10 28 10 29 10 37 0 13-5 23-15 27-5 2-13 2-17 0zM325 132c-8-4-14-13-17-24-3-8-3-27 0-39a108 108 0 0 1 51-69l-2 4c-5 7-11 19-13 27-2 6-2 10-2 17 0 12 1 18 7 33 6 14 8 24 6 32-3 12-10 20-21 20-4 1-7 0-9-1zm173-19c-5-5-7-10-7-21 1-11 4-20 11-29 4-6 14-14 17-14l-2 4c-3 5-6 14-6 19l4 13c5 16 4 25-4 29-5 3-9 2-13-1z"
     id="path2" />
  <metadata
     id="metadata114">
    <rdf:RDF>
      <cc:License
         rdf:about="http://creativecommons.org/publicdomain/zero/1.0/">
        <cc:permits
           rdf:resource="http://creativecommons.org/ns#Reproduction" />
        <cc:permits
           rdf:resource="http://creativecommons.org/ns#Distribution" />
        <cc:permits
           rdf:resource="http://creativecommons.org/ns#DerivativeWorks" />
      </cc:License>
      <cc:Work
         rdf:about="">
        <cc:license
           rdf:resource="http://creativecommons.org/publicdomain/zero/1.0/" />
        <dc:title>Screen burn-in</dc:title>
      </cc:Work>
    </rdf:RDF>
  </metadata>
</svg>
